# xmcd
#
# Track frame offsets:
#	182
#	11935
#	24717
#	36805
#	46225
#	55760
#	65615
#	75362
#	86147
#	96387
#	106425
#	131937
#	145362
#	154060
#	164327
#	177757
#	190327
#	201590
#	212372
#	224172
#	236770
#	248500
#	261442
#	271237
#
# Disc length: 3770 seconds
#
# Revision: 3
# Processed by: cddbd v1.4PL0 Copyright (c) Steve Scherf et al.
# Submitted via: audiograbber 1.81.02
#
DISCID=6a0eb818
DTITLE=Jim Reeves - The Collection
DYEAR=1988
DGENRE=Country
TTITLE0=Adios Amigo
TTITLE1=I Love You Because
TTITLE2=Welcome To My World
TTITLE3=I Won't Forget You
TTITLE4=There's A Heartache Following Me
TTITLE5=It Hurts So Much To See You Go
TTITLE6=I Won't Come In While He's There
TTITLE7=You're The Only Good Thing (That Ever Happened To Me)
TTITLE8=Is It Really Over
TTITLE9=But You Love Me, Daddy
TTITLE10=The Shifting Whispering Sands
TTITLE11=Danny Boy
TTITLE12=From A Jack To A King
TTITLE13=A Fool Such As I
TTITLE14=The White Cliffs Of Dover
TTITLE15=I Can't Stop Loving You
TTITLE16=Moonlight And Roses
TTITLE17=That's My Desire
TTITLE18=You Belong To Me
TTITLE19=Blue Skies
TTITLE20=Carolina Moon
TTITLE21=Not Until The Next Time
TTITLE22=When Two Worlds Collide
TTITLE23=Moon River
EXTD=
EXTT0=
EXTT1=
EXTT2=
EXTT3=
EXTT4=
EXTT5=
EXTT6=
EXTT7=
EXTT8=
EXTT9=
EXTT10=
EXTT11=
EXTT12=
EXTT13=
EXTT14=
EXTT15=
EXTT16=
EXTT17=
EXTT18=
EXTT19=
EXTT20=
EXTT21=
EXTT22=
EXTT23=
PLAYORDER=
